PathFileType	4	(X/Y/Z)	C:/Users/beibeiliu/ov580/test_trc\sequence.8_training_dense_right.trc
DataRate	CameraRate	NumFrames	NumMarkers	Units	OrigDataRate	OrigDataStartFrame	OrigNumFrames
120	120	7	19	mm	120	329	375
Frame#	Time	ThumbCMC			ThumbMCP			ThumbIP			ThumbTip			IndexMCP			IndexPIP			IndexTip			MiddleMCP			MiddlePIP			MiddleTip			RingMCP			RingPIP			RingTip			PinkyMCP			PinkyPIP			PinkyTip			BackHand1			BackHand2			BackHand3	
		X0	Y0	Z0	X1	Y1	Z1	X2	Y2	Z2	X3	Y3	Z3	X4	Y4	Z4	X5	Y5	Z5	X6	Y6	Z6	X7	Y7	Z7	X8	Y8	Z8	X9	Y9	Z9	X10	Y10	Z10	X11	Y11	Z11	X12	Y12	Z12	X13	Y13	Z13	X14	Y14	Z14	X15	Y15	Z15	X16	Y16	Z16	X17	Y17	Z17	X18	Y18	Z18	
328	2.73333	144.993	-21.8018	-0.712121	129.52	-34.1356	-17.1848	115.027	-39.8855	-30.5097	97.5369	-46.2052	-42.439	144.811	-21.1528	-67.595	141.137	-27.2154	-91.3739	135.747	-35.4534	-111.643	171.743	-21.4279	-76.1825	167.221	-28.2604	-101.596	170.21	-34.5493	-123.567	188.219	-25.9237	-71.8423	194.384	-31.5194	-89.1903	195.39	-36.8666	-114.137	207.95	-32.0737	-54.8325	215.618	-36.1765	-73.4177	222.425	-33.0624	-84.0882	190.97	-11.9271	-25.9223	194.881	-5.77387	-3.76323	166.898	-5.43595	-16.1088	
329	2.74167	145.334	-21.3098	0.266302	128.956	-35.1435	-15.7257	111.421	-40.0902	-30.9661	101.252	-46.3857	-44.0475	147.406	-21.5207	-66.6407	140.321	-27.931	-92.0139	138.274	-36.9174	-114.673	170.482	-23.2202	-78.7229	168.998	-29.2825	-102.376	166.673	-35.5227	-124.936	191.664	-27.6102	-66.457	196.356	-32.7221	-91.2854	194.457	-36.2623	-109.006	210.992	-32.9395	-53.5672	219.266	-36.8333	-67.7857	224.384	-36.1319	-86.3203	188.552	-11.9482	-25.8525	194.363	-4.39611	-4.15132	164.49	-2.59191	-14.1168	
330	2.75	144.882	-22.2707	-3.62924	126.209	-34.5315	-15.9343	115.687	-41.2139	-31.3133	97.2277	-47.444	-45.1703	147.865	-22.6429	-67.2903	142.171	-29.6448	-91.6028	136.494	-36.6149	-110.929	167.82	-22.6553	-77.372	168.42	-28.8976	-98.0071	169.981	-36.1757	-121.604	190.719	-27.6109	-70.0372	190.758	-32.0379	-93.2736	194.008	-37.1294	-112.083	210.807	-33.9104	-51.2882	216.043	-37.8871	-68.0337	223.65	-35.4499	-85.6075	188.741	-13.6451	-24.3516	195.308	-6.5694	-4.09893	165.509	-5.10335	-12.6026	
331	2.75833	141.643	-22.5793	3.17116	125.265	-35.9704	-18.2794	113.512	-42.4264	-34.8932	97.6463	-47.3719	-42.8192	143.599	-22.907	-70.0503	138.46	-30.2527	-92.0944	139.3	-36.2031	-109.042	166.921	-23.6119	-76.2322	169.867	-31.3058	-99.9035	167.581	-36.9999	-122.259	189.326	-28.9281	-65.6127	191.911	-33.4815	-88.3457	194.98	-37.6948	-107.359	209.019	-34.0071	-54.8366	215.254	-37.1817	-68.8448	222.896	-35.4594	-82.5743	192.416	-13.8131	-26.0438	194.81	-8.4506	0.786055	167.396	-7.38986	-15.5646	
332	2.76667	146.071	-24.2676	0.468266	127.383	-37.7566	-12.9914	112.953	-42.7394	-32.6808	98.479	-48.7634	-45.2019	143.727	-22.3253	-67.716	143.74	-29.0407	-88.6848	139.886	-36.5281	-108.502	167.74	-24.5795	-75.1762	168.253	-29.8263	-98.9107	170.411	-38.2235	-124.977	191.758	-28.4949	-68.5683	193.631	-34.1517	-87.7246	192.007	-37.3515	-110.519	212.38	-34.6197	-55.3044	215.653	-37.3734	-71.8557	226.813	-36.882	-86.4239	192.765	-13.2816	-28.6948	193.671	-7.86627	-0.424589	168.023	-6.55313	-11.3196	
333	2.775	144.17	-24.9677	1.39311	128.241	-37.4143	-16.5305	114.037	-44.2362	-30.3282	101.147	-49.249	-40.9415	145.569	-23.5196	-66.1956	139.258	-29.3068	-85.9555	135.492	-37.428	-110.6	171.269	-24.2959	-74.5409	168.438	-30.2717	-99.5231	171.218	-38.8174	-122.231	191.242	-28.6366	-70.7275	193.582	-33.3088	-90.1183	194.687	-38.2909	-107.412	208.203	-33.4962	-56.0253	213.643	-36.9841	-67.1985	226.842	-34.3334	-86.7602	192.71	-13.9993	-27.2401	192.541	-6.94259	-1.36667	166.804	-5.56469	-16.3534	
334	2.78333	146.297	-25.408	-1.39921	129.222	-38.4559	-15.8549	114.879	-44.6788	-33.1462	103.208	-50.5081	-46.2016	145.864	-22.9941	-64.6333	142.131	-30.4324	-89.4173	137.457	-39.1974	-112.253	169.069	-25.5577	-75.3258	166.754	-30.062	-94.9766	169.611	-38.5807	-123.832	191.538	-29.0426	-65.8203	196.204	-33.5441	-87.9892	192.807	-37.8786	-107.586	211.113	-34.0206	-51.8751	217.563	-37.8518	-70.2419	224.839	-36.3658	-82.6555	192.641	-15.7267	-25.6762	191.054	-7.55983	1.45605	166.956	-5.53713	-12.0046	
